HIERARCHY
ROOT Hips
{
 OFFSET 0.000000 0.000000 0.000000
 CHANNELS 6 Xposition Yposition Zposition Yrotation Xrotation Zrotation
 JOINT Chest
 {
  OFFSET 0.000000 9.910571 -0.011835
  CHANNELS 3 Yrotation Xrotation Zrotation
  JOINT Chest2
  {
   OFFSET 0.000000 10.789473 0.021497
   CHANNELS 3 Yrotation Xrotation Zrotation
   JOINT Chest3
   {
    OFFSET 0.000000 9.748205 0.000000
    CHANNELS 3 Yrotation Xrotation Zrotation
    JOINT Chest4
    {
     OFFSET 0.000000 9.748205 0.000000
     CHANNELS 3 Yrotation Xrotation Zrotation
     JOINT Neck
     {
      OFFSET 0.000000 13.998479 0.000000
      CHANNELS 3 Yrotation Xrotation Zrotation
      JOINT Head
      {
       OFFSET 0.000000 9.082285 0.051121
       CHANNELS 3 Yrotation Xrotation Zrotation
       End Site
       {
        OFFSET 0.000000 17.246134 0.026702
       }
      }
     }
     JOINT RightCollar
     {
      OFFSET -3.284495 7.824262 0.000000
      CHANNELS 3 Yrotation Xrotation Zrotation
      JOINT RightShoulder
      {
       OFFSET -15.534540 0.000000 0.000000
       CHANNELS 3 Yrotation Xrotation Zrotation
       JOINT RightElbow
       {
        OFFSET 0.000000 -28.251216 0.000000
        CHANNELS 3 Yrotation Xrotation Zrotation
        JOINT RightWrist
        {
         OFFSET 0.000000 -23.418114 0.012537
         CHANNELS 3 Yrotation Xrotation Zrotation
         End Site
         {
          OFFSET 0.000000 -17.723959 0.000000
         }
        }
       }
      }
     }
     JOINT LeftCollar
     {
      OFFSET 3.284495 7.824262 0.000000
      CHANNELS 3 Yrotation Xrotation Zrotation
      JOINT LeftShoulder
      {
       OFFSET 15.534540 0.000000 0.000000
       CHANNELS 3 Yrotation Xrotation Zrotation
       JOINT LeftElbow
       {
        OFFSET 0.000000 -28.251216 0.000000
        CHANNELS 3 Yrotation Xrotation Zrotation
        JOINT LeftWrist
        {
         OFFSET 0.000000 -23.418114 0.012537
         CHANNELS 3 Yrotation Xrotation Zrotation
         End Site
         {
          OFFSET 0.000000 -17.723959 0.000000
         }
        }
       }
      }
     }
    }
   }
  }
 }
 JOINT RightHip
 {
  OFFSET -8.142657 0.057990 0.005917
  CHANNELS 3 Yrotation Xrotation Zrotation
  JOINT RightKnee
  {
   OFFSET 0.000000 -49.716894 0.008478
   CHANNELS 3 Yrotation Xrotation Zrotation
   JOINT RightAnkle
   {
    OFFSET 0.000000 -43.994153 0.004166
    CHANNELS 3 Yrotation Xrotation Zrotation
    JOINT RightToe
    {
     OFFSET 0.000000 -7.619154 17.822051
     CHANNELS 3 Yrotation Xrotation Zrotation
     End Site
     {
      OFFSET 0.000000 -1.595627 7.159905
     }
    }
   }
  }
 }
 JOINT LeftHip
 {
  OFFSET 8.142657 0.057990 0.005917
  CHANNELS 3 Yrotation Xrotation Zrotation
  JOINT LeftKnee
  {
   OFFSET 0.000000 -49.716894 0.008478
   CHANNELS 3 Yrotation Xrotation Zrotation
   JOINT LeftAnkle
   {
    OFFSET 0.000000 -43.994153 0.004166
    CHANNELS 3 Yrotation Xrotation Zrotation
    JOINT LeftToe
    {
     OFFSET 0.000000 -7.619154 17.822051
     CHANNELS 3 Yrotation Xrotation Zrotation
     End Site
     {
      OFFSET 0.000000 -1.595627 7.159905
     }
    }
   }
  }
 }
}
MOTION
Frames: 13
Frame Time: 0.008333
245.316434 56.670158 263.993678 -53.722993 -55.897926 2.662516 -2.129460 21.178942 -1.675215 -0.794809 9.404134 -0.696410 -0.794809 9.404134 -0.696410 -0.583959 7.054028 -0.508800 1.791459 18.997580 1.084626 2.934186 -0.908809 1.412756 -1.225981 9.490935 12.660252 24.424195 -18.055952 -24.602964 -4.469487 -43.223943 34.800702 2.002162 -9.405772 -9.154066 -1.167175 11.176036 -9.891458 -7.811098 -19.092257 17.537079 20.896023 -45.373555 -33.571081 -2.041955 3.888387 -8.920528 -7.462073 -31.262596 -9.378966 -92.822152 73.672915 -108.286505 -3.076829 -4.741408 7.001569 0.031098 0.269740 0.024684 4.494671 -31.678017 11.979903 76.847190 85.230357 79.284866 -0.928666 0.984246 -1.058664 -0.058127 -0.176132 -0.017968
245.320645 56.670851 263.997075 -53.708376 -55.893674 2.658397 -2.133712 21.180668 -1.681971 -0.795288 9.406631 -0.697078 -0.795288 9.406631 -0.697078 -0.584304 7.055902 -0.509289 1.795484 18.998141 1.084137 2.941716 -0.907744 1.410579 -1.223867 9.481444 12.664211 24.429902 -18.060495 -24.607738 -4.474594 -43.218584 34.798850 2.003285 -9.413841 -9.150812 -1.171574 11.166827 -9.887864 -7.807643 -19.098472 17.538243 20.890941 -45.367869 -33.568273 -2.045923 3.880765 -8.925155 -7.456502 -31.267725 -9.394623 -92.824062 73.674268 -108.286950 -3.069242 -4.736845 7.005489 0.026256 0.265503 0.022972 4.499267 -31.684419 11.962525 76.851293 85.219980 79.291369 -0.934019 0.990915 -1.053625 -0.061380 -0.180812 -0.020088
245.322622 56.672346 263.999580 -53.702043 -55.892564 2.656039 -2.129356 21.186032 -1.682420 -0.794931 9.408532 -0.697682 -0.794931 9.408532 -0.697682 -0.584024 7.057328 -0.509743 1.797128 19.001982 1.084934 2.944470 -0.900616 1.411571 -1.221938 9.482464 12.673599 24.427080 -18.072162 -24.614789 -4.473533 -43.216636 34.793079 2.006995 -9.416196 -9.136540 -1.172484 11.158401 -9.884851 -7.819570 -19.100171 17.541198 20.849006 -45.372297 -33.605074 -2.015835 3.870212 -8.859020 -7.448540 -31.269317 -9.400827 -92.832665 73.666518 -108.290077 -3.066888 -4.733023 7.002349 0.029410 0.260568 0.025611 4.505542 -31.681652 11.958323 76.816353 85.217998 79.255978 -0.943547 0.982260 -1.051828 -0.059560 -0.175225 -0.017869
245.324127 56.674185 264.002910 -53.695782 -55.894391 2.651884 -2.125305 21.191980 -1.680693 -0.793690 9.411023 -0.696622 -0.793690 9.411023 -0.696622 -0.583109 7.059193 -0.508965 1.799522 19.002550 1.083657 2.949263 -0.899532 1.408475 -1.223725 9.488271 12.673218 24.433680 -18.089957 -24.627046 -4.495148 -43.211149 34.806954 2.012670 -9.414532 -9.140793 -1.177846 11.153581 -9.881277 -7.819481 -19.108330 17.534723 20.843010 -45.373952 -33.604773 -2.014831 3.865545 -8.864123 -7.444662 -31.267166 -9.407603 -92.842713 73.669430 -108.298056 -3.064685 -4.729651 7.003534 0.025928 0.256069 0.024518 4.508491 -31.678029 11.953701 76.834356 85.214573 79.277025 -0.950617 0.975386 -1.055394 -0.058401 -0.173310 -0.015391
245.326394 56.675201 264.006447 -53.685486 -55.889846 2.642294 -2.127832 21.196954 -1.681720 -0.794458 9.413795 -0.695816 -0.794458 9.413795 -0.695816 -0.583692 7.061273 -0.508346 1.800914 19.002185 1.081455 2.952520 -0.900170 1.403990 -1.214925 9.486160 12.673134 24.448986 -18.102528 -24.637175 -4.513916 -43.206423 34.811373 2.016226 -9.419532 -9.148297 -1.170742 11.143464 -9.878706 -7.820672 -19.116159 17.533328 20.792962 -45.377227 -33.642757 -1.974736 3.853640 -8.792324 -7.447603 -31.269888 -9.410453 -92.836961 73.677853 -108.292612 -3.064789 -4.725150 7.005852 0.022976 0.253901 0.022168 4.503456 -31.682653 11.953832 76.853753 85.208102 79.293276 -0.960927 0.976185 -1.054780 -0.058529 -0.175417 -0.014751
245.329049 56.675728 264.009577 -53.672858 -55.887098 2.630208 -2.129509 21.199042 -1.679697 -0.793983 9.416426 -0.694306 -0.793983 9.416426 -0.694306 -0.583355 7.063243 -0.507219 1.803267 19.001795 1.079319 2.957515 -0.900852 1.399318 -1.213204 9.483717 12.674430 24.451361 -18.113288 -24.645200 -4.517813 -43.201216 34.811292 2.023978 -9.422995 -9.151595 -1.168535 11.137176 -9.878198 -7.828161 -19.120200 17.533680 20.788130 -45.378364 -33.639461 -1.969775 3.844752 -8.794823 -7.452077 -31.271814 -9.411461 -92.834405 73.680360 -108.291405 -3.062600 -4.721423 7.009725 0.019059 0.251557 0.019564 4.500729 -31.689842 11.952227 76.868335 85.204518 79.310219 -0.968774 0.986119 -1.055953 -0.054949 -0.183478 -0.013334
245.329734 56.677200 264.012267 -53.666207 -55.888897 2.618076 -2.132500 21.205228 -1.679971 -0.794420 9.418545 -0.694430 -0.794420 9.418545 -0.694430 -0.583678 7.064833 -0.507302 1.810146 19.002828 1.079967 2.969909 -0.898912 1.398317 -1.193264 9.482580 12.679613 24.450996 -18.118565 -24.652555 -4.525698 -43.197947 34.809544 2.024810 -9.430935 -9.152911 -1.154424 11.133519 -9.871448 -7.836476 -19.122843 17.531362 20.741530 -45.388415 -33.664373 -1.926782 3.827918 -8.724814 -7.458737 -31.266091 -9.415985 -92.829884 73.685832 -108.281448 -3.049790 -4.729153 7.009372 0.010949 0.255160 0.013636 4.491135 -31.688280 11.963299 76.860470 85.214914 79.301257 -0.967152 0.987729 -1.063106 -0.045787 -0.186636 -0.009304
245.330703 56.677528 264.014566 -53.656500 -55.887015 2.605432 -2.134705 21.209250 -1.680432 -0.794984 9.421196 -0.694957 -0.794984 9.421196 -0.694957 -0.584088 7.066823 -0.507684 1.817258 19.001818 1.081230 2.982533 -0.900773 1.398336 -1.181810 9.480781 12.685583 24.444921 -18.122300 -24.655525 -4.524989 -43.207018 34.808351 2.025672 -9.428762 -9.156961 -1.147010 11.126006 -9.864923 -7.839235 -19.131301 17.532034 20.734194 -45.382328 -33.658197 -1.923612 3.817240 -8.730991 -7.465722 -31.266312 -9.415253 -92.831989 73.691560 -108.281174 -3.051673 -4.730999 7.008366 0.010100 0.255677 0.011982 4.486004 -31.693846 11.968823 76.888839 85.217761 79.329718 -0.968043 0.991317 -1.063089 -0.043514 -0.190746 -0.008766
245.331843 56.678377 264.016974 -53.657403 -55.883680 2.605876 -2.134281 21.215267 -1.683820 -0.794990 9.423264 -0.696411 -0.794990 9.423264 -0.696411 -0.584067 7.068375 -0.508768 1.822525 19.000609 1.083236 2.991540 -0.903023 1.400304 -1.179580 9.480146 12.689489 24.455524 -18.132200 -24.663291 -4.529432 -43.212737 34.799722 2.024306 -9.426303 -9.152830 -1.139819 11.119522 -9.859851 -7.847850 -19.144382 17.537897 20.693201 -45.377711 -33.702910 -1.886163 3.802701 -8.646161 -7.466043 -31.267637 -9.418863 -92.819257 73.693882 -108.266670 -3.049051 -4.733970 7.005551 0.010935 0.258455 0.011192 4.490709 -31.695153 11.967575 76.872475 85.215950 79.313356 -0.972412 0.988204 -1.063351 -0.043777 -0.188561 -0.008296
245.333118 56.679131 264.018921 -53.655078 -55.880421 2.601133 -2.133090 21.216056 -1.684869 -0.795405 9.424150 -0.697510 -0.795405 9.424150 -0.697510 -0.584359 7.069042 -0.509582 1.827310 19.001716 1.084288 2.999967 -0.900961 1.400716 -1.171337 9.485236 12.698244 24.462092 -18.142271 -24.671733 -4.528194 -43.216004 34.792232 2.020158 -9.428379 -9.149298 -1.128782 11.121699 -9.857509 -7.862534 -19.154712 17.542076 20.691055 -45.373253 -33.697116 -1.893114 3.797963 -8.651924 -7.470458 -31.270448 -9.419864 -92.803485 73.695418 -108.250740 -3.042272 -4.731452 7.002379 0.008296 0.256897 0.010509 4.488906 -31.697604 11.968987 76.861776 85.215791 79.305373 -0.976921 0.987838 -1.070038 -0.038060 -0.188291 -0.006398
245.331854 56.681056 264.017940 -53.654200 -55.880911 2.593412 -2.132262 21.219267 -1.681421 -0.795479 9.425100 -0.698744 -0.795479 9.425100 -0.698744 -0.584394 7.069756 -0.510503 1.833541 19.002048 1.086594 3.010642 -0.900352 1.402950 -1.152592 9.486517 12.707456 24.450693 -18.149876 -24.678782 -4.528057 -43.218022 34.791238 2.016790 -9.430015 -9.156854 -1.117258 11.122754 -9.856473 -7.873760 -19.159014 17.545733 20.651850 -45.378900 -33.727088 -1.863954 3.782911 -8.584981 -7.477388 -31.264347 -9.403461 -92.785236 73.683457 -108.232466 -3.044317 -4.738867 6.995331 0.019047 0.261427 0.015859 4.484389 -31.697023 11.978459 76.865059 85.212416 79.308003 -0.973595 0.989829 -1.071549 -0.039285 -0.189830 -0.006760
245.332139 56.682010 264.016894 -53.649179 -55.877411 2.582721 -2.133363 21.220714 -1.680361 -0.795665 9.426968 -0.699358 -0.795665 9.426968 -0.699358 -0.584521 7.071158 -0.510957 1.836737 19.000494 1.088476 3.015896 -0.903251 1.405349 -1.143987 9.488021 12.709582 24.451201 -18.165110 -24.678645 -4.522897 -43.217109 34.784032 2.011764 -9.432828 -9.153509 -1.114220 11.119672 -9.854918 -7.876644 -19.171564 17.549122 20.646167 -45.375809 -33.724957 -1.863462 3.780199 -8.584205 -7.486784 -31.262739 -9.391574 -92.758733 73.681935 -108.206962 -3.045935 -4.740769 6.995339 0.022668 0.263814 0.014512 4.479373 -31.703192 11.983224 76.876143 85.209681 79.321246 -0.969348 0.995306 -1.071206 -0.043036 -0.193387 -0.009642
245.331162 56.684061 264.015419 -53.646163 -55.875559 2.570519 -2.130688 21.228528 -1.676163 -0.796139 9.429147 -0.699426 -0.796139 9.429147 -0.699426 -0.584871 7.072794 -0.510997 1.836102 18.997030 1.088241 3.014812 -0.909682 1.405067 -1.129152 9.481588 12.714999 24.446066 -18.168006 -24.683498 -4.528386 -43.221987 34.774959 2.012728 -9.437852 -9.138897 -1.111811 11.111008 -9.854989 -7.876736 -19.176960 17.557944 20.599941 -45.374867 -33.766991 -1.822618 3.751930 -8.498793 -7.497853 -31.260180 -9.377659 -92.732528 73.673151 -108.180757 -3.031568 -4.744023 6.992287 0.028407 0.264413 0.014131 4.471480 -31.703286 11.999121 76.870970 85.213481 79.311161 -0.967885 0.988616 -1.066363 -0.044176 -0.188766 -0.012303
